# xmcd CD database file
#
# Track frame offsets:
#	150
#	14102
#	25387
#	41130
#	57012
#	78997
#	97197
#	118725
#	141165
#	161340
#	179430
#	200400
#	218782
#	228685
#	245852
#	257107
#
# Disc length: 3720 seconds
#
# Revision: 0
# Processed by: cddbd v1.4PL0 Copyright (c) Steve Scherf et al.
# Submitted via: CDex 1.50beta9
#
DISCID=ef0e8610
DTITLE=THE STAPLE SINGERS - WE WILL TAKE YOU THER THE BEST OF THE STAPLE SINGERS
DYEAR=1900
DGENRE=Blues
TTITLE0=Havy Makes You Happy [Sha-na-Boom Boom]
TTITLE1=Love Is Plentiful
TTITLE2=You've Got To Earn It
TTITLE3=This World
TTITLE4=Respect Yourself
TTITLE5=Name The Missing World
TTITLE6=I'll Take You There
TTITLE7=Be What You Are
TTITLE8=If You're Ready [Come Go Me]
TTITLE9=Touch A Hand, Make A Friend 
TTITLE10=Drown Yourself
TTITLE11=Bridges Instead Of Walls
TTITLE12=My Main Man
TTITLE13=City In The Sky
TTITLE14=Long Walk To D.C.
TTITLE15=Oh La De Da
EXTD=
EXTT0=
EXTT1=
EXTT2=
EXTT3=
EXTT4=
EXTT5=
EXTT6=
EXTT7=
EXTT8=
EXTT9=
EXTT10=
EXTT11=
EXTT12=
EXTT13=
EXTT14=
EXTT15=
PLAYORDER=
